<svg width="36" height="43" viewBox="0 0 36 43" fill="none" xmlns="http://www.w3.org/2000/svg">
<path d="M0 24.1959C0 29.0088 1.87836 33.6245 5.22187 37.0277C8.56537 40.4309 13.1001 42.3429 17.8286 42.3429C17.8286 32.2612 9.84533 24.1959 0 24.1959ZM17.8286 9.07347C19.142 9.07347 20.4017 9.60455 21.3304 10.5499C22.2592 11.4952 22.781 12.7774 22.781 14.1143C22.781 15.4512 22.2592 16.7333 21.3304 17.6787C20.4017 18.624 19.142 19.1551 17.8286 19.1551C16.5151 19.1551 15.2555 18.624 14.3267 17.6787C13.398 16.7333 12.8762 15.4512 12.8762 14.1143C12.8762 12.7774 13.398 11.4952 14.3267 10.5499C15.2555 9.60455 16.5151 9.07347 17.8286 9.07347ZM5.15048 18.651C5.15048 19.9879 5.67224 21.2701 6.60099 22.2154C7.52975 23.1608 8.7894 23.6918 10.1029 23.6918C11.1528 23.6918 12.1234 23.3491 12.8762 22.8047V23.1878C12.8762 24.5247 13.398 25.8068 14.3267 26.7521C15.2555 27.6975 16.5151 28.2286 17.8286 28.2286C19.142 28.2286 20.4017 27.6975 21.3304 26.7521C22.2592 25.8068 22.781 24.5247 22.781 23.1878V22.8047C23.5337 23.3491 24.5044 23.6918 25.5543 23.6918C26.8677 23.6918 28.1274 23.1608 29.0561 22.2154C29.9849 21.2701 30.5067 19.9879 30.5067 18.651C30.5067 16.6347 29.3379 14.9208 27.6739 14.1143C29.3379 13.3078 30.5067 11.5737 30.5067 9.57755C30.5067 8.24064 29.9849 6.95849 29.0561 6.01316C28.1274 5.06782 26.8677 4.53673 25.5543 4.53673C24.5044 4.53673 23.5337 4.85935 22.781 5.42392V5.04082C22.781 3.70391 22.2592 2.42176 21.3304 1.47642C20.4017 0.531084 19.142 0 17.8286 0C16.5151 0 15.2555 0.531084 14.3267 1.47642C13.398 2.42176 12.8762 3.70391 12.8762 5.04082V5.42392C12.1234 4.85935 11.1528 4.53673 10.1029 4.53673C8.7894 4.53673 7.52975 5.06782 6.60099 6.01316C5.67224 6.95849 5.15048 8.24064 5.15048 9.57755C5.15048 11.5737 6.31924 13.3078 7.98324 14.1143C6.31924 14.9208 5.15048 16.6347 5.15048 18.651ZM17.8286 42.3429C22.557 42.3429 27.0918 40.4309 30.4353 37.0277C33.7788 33.6245 35.6571 29.0088 35.6571 24.1959C25.7524 24.1959 17.8286 32.2612 17.8286 42.3429Z" fill="#8B38FF"/>
</svg>
