<svg width="63" height="43" viewBox="0 0 63 43" fill="none" xmlns="http://www.w3.org/2000/svg">
<path d="M14.1826 39.4581C9.45531 39.2232 5.93349 38.2368 3.61712 36.4988C1.30076 34.7607 0.142578 32.2476 0.142578 28.9594C0.142578 25.9061 1.4076 23.4287 3.93763 21.5272C6.46767 19.6257 9.9772 18.4861 14.4662 18.1085C16.3099 17.9675 17.6931 17.6744 18.6158 17.2291C19.5386 16.7838 19.999 16.1609 19.9971 15.3605C19.9971 14.1392 19.3003 13.2232 17.9067 12.6125C16.5131 12.0018 14.2081 11.5556 10.9917 11.2737L11.488 5.63687C16.3571 6.01266 19.9385 6.98784 22.2322 8.56241C24.5259 10.137 25.6717 12.403 25.6699 15.3605C25.6699 17.8501 24.7603 19.7995 22.9413 21.2087C21.1222 22.6179 18.439 23.4635 14.8917 23.7453C11.8662 23.9802 9.59712 24.5326 8.0844 25.4026C6.57167 26.2725 5.81531 27.4581 5.81531 28.9594C5.81531 30.6035 6.47712 31.7901 7.80076 32.5191C9.1244 33.2482 11.3462 33.6822 14.4662 33.8212L14.1826 39.4581ZM36.6608 37.3443L24.9608 25.7182L49.4244 1.40922C50.3699 0.469739 51.4931 0 52.794 0C54.0949 0 55.2172 0.469739 56.1608 1.40922L61.1244 6.34148C62.0699 7.28096 62.5426 8.39706 62.5426 9.68978C62.5426 10.9825 62.0699 12.0977 61.1244 13.0353L36.6608 37.3443ZM22.7626 42.2765C21.9589 42.4644 21.2499 42.2531 20.6353 41.6424C20.0208 41.0317 19.808 40.3271 19.9971 39.5286L22.1953 28.889L33.3989 40.0218L22.7626 42.2765Z" fill="#8B38FF"/>
</svg>
