<svg width="40" height="39" viewBox="0 0 40 39" fill="none" xmlns="http://www.w3.org/2000/svg">
<path d="M19.2167 20.8406V20.6476L18.6356 20.0687H18.4419L15.3429 18.911C16.1176 18.3321 16.8924 17.9461 17.8608 17.9461C18.8293 17.9461 19.7977 18.3321 20.5725 19.1039C21.3473 19.8758 21.7346 20.6476 21.7346 21.6125C21.7346 22.5773 21.5409 23.3491 20.7662 24.121L19.2167 20.8406ZM15.5365 32.9973C14.9555 31.0677 15.3429 28.7521 16.8924 25.6647L19.2167 31.6466C19.604 32.8044 19.2167 33.5762 18.0545 34.1551C16.8924 34.734 16.1176 34.3481 15.5365 32.9973ZM4.68989 21.0336C5.07727 19.8758 5.85203 19.4899 7.01417 19.8758L13.2123 22.1913C10.1132 23.7351 7.78894 24.121 5.85203 23.5421C4.68989 22.9632 4.30251 22.1913 4.68989 21.0336ZM19.9914 11.3854H18.0545V14.0869H17.2798C15.1492 14.0869 13.406 14.8587 11.8564 16.4024L11.0817 17.5602L8.37001 16.0165C7.78894 15.8235 7.20786 15.8235 6.4331 15.8235C5.27096 15.8235 4.10882 16.2095 3.14037 16.9813C2.17192 17.7532 1.39715 18.525 1.00977 19.6828C0.622393 21.0336 0.622393 22.1913 1.00977 23.5421C1.59084 24.8928 2.17192 25.8577 3.14037 26.4366C2.36561 29.331 2.94668 31.8395 5.07727 33.9621C6.62679 35.5059 8.37001 36.2777 10.5006 36.2777C11.4691 36.2777 12.0501 36.2777 12.6312 36.0848C13.7933 37.6285 15.3429 38.5933 17.2798 38.5933C17.8608 38.5933 18.6356 38.5933 19.2167 38.4003C20.3788 38.0144 21.1536 37.2425 21.9283 36.2777C22.7031 35.1199 23.0905 34.1551 23.0905 32.9973C23.0905 32.2255 23.0905 31.6466 22.8968 31.0677L21.7346 28.3662L22.8968 27.5943C24.4463 26.0506 25.2211 23.928 25.0274 21.6125H27.739V19.6828H24.64C23.8652 17.3672 22.3157 15.8235 19.9914 15.0517V11.3854ZM30.257 8.87683C29.8696 8.49091 29.6759 7.91201 29.6759 7.52608C29.6759 6.94719 29.8696 6.56126 30.257 6.17534C30.6444 5.78941 31.0318 5.59644 31.6128 5.59644C32.1939 5.59644 32.5813 5.78941 32.9687 6.17534C33.3561 6.3683 33.5498 6.94719 33.5498 7.52608C33.5498 8.10498 33.3561 8.49091 32.9687 8.87683C32.5813 9.26276 32.1939 9.26276 31.6128 9.26276C31.0318 9.26276 30.6444 9.26276 30.257 8.87683ZM36.8425 3.6668H34.7119L34.1308 1.93013C33.7434 0.57938 32.9687 0.000488281 31.6128 0.000488281C30.257 0.000488281 29.2886 0.57938 29.0949 1.93013L28.5138 3.6668H26.3832C25.2211 3.6668 24.4463 4.2457 23.8652 5.40348C23.4779 6.56126 23.8652 7.52608 25.0274 8.29794L26.7706 9.26276L25.9958 11.5783C25.6084 12.3502 25.8021 13.122 26.1895 13.8939C26.7706 14.6658 27.3517 15.0517 28.3201 15.0517C29.0949 15.0517 29.6759 14.8587 30.0633 14.4728L31.6128 13.315L33.1624 14.6658C33.5498 14.8587 34.1308 15.0517 34.9056 15.0517C35.874 15.0517 36.4551 14.6658 37.0362 13.8939C37.4236 13.122 37.6172 12.3502 37.2299 11.5783L36.4551 9.26276L38.0046 8.29794C39.1668 7.52608 39.5542 6.56126 39.1668 5.40348C38.7794 4.05273 38.0046 3.6668 36.8425 3.6668Z" fill="#8B38FF"/>
</svg>
